# xmcd
#
# Track frame offsets: 
#        150
#        14557
#        28764
#        46477
#        60903
#        79150
#        99726
#        116291
#        134495
#        149539
#        166893
#
# Disc length: 2420 seconds
#
# Revision: 0
# Processed by: cddbd v1.5.2PL0 Copyright (c) Steve Scherf et al.
# Submitted via: ExactAudioCopy v1.0b2
#
DISCID=9309720b
DTITLE=Booth Brothers - Carry on
DYEAR=2007
DGENRE=Gospel
TTITLE0=At the right time
TTITLE1=All creatures of our God and King
TTITLE2=Tears are a language
TTITLE3=Passing the faith along
TTITLE4=No more
TTITLE5=Storm now and then
TTITLE6=I'm forgiven
TTITLE7=Over the moon
TTITLE8=Hallelujah meeting
TTITLE9=The eyes of Jesus
TTITLE10=Restore my soul
EXTD=
EXTT0=
EXTT1=
EXTT2=
EXTT3=
EXTT4=
EXTT5=
EXTT6=
EXTT7=
EXTT8=
EXTT9=
EXTT10=
PLAYORDER=
